<mxfile host="65bd71144e">
    <diagram id="Dpb0c6cym7cN_sBU1LOq" name="Page-1">
        <mxGraphModel dx="888" dy="398" grid="1" gridSize="10" guides="1" tooltips="1" connect="1" arrows="1" fold="1" page="1" pageScale="1" pageWidth="1169" pageHeight="827" math="0" shadow="0">
            <root>
                <mxCell id="0"/>
                <mxCell id="1" parent="0"/>
                <mxCell id="13" value="&lt;br&gt;&amp;nbsp; &amp;nbsp; main" style="whiteSpace=wrap;html=1;fontStyle=1;verticalAlign=top;align=left;" vertex="1" parent="1">
                    <mxGeometry x="49" y="280" width="511" height="360" as="geometry"/>
                </mxCell>
                <mxCell id="25" style="edgeStyle=none;html=1;entryX=0.776;entryY=1.032;entryDx=0;entryDy=0;entryPerimeter=0;fontColor=none;" edge="1" parent="1" source="16" target="18">
                    <mxGeometry relative="1" as="geometry"/>
                </mxCell>
                <mxCell id="16" value="&lt;br&gt;&amp;nbsp; &amp;nbsp; renderer" style="whiteSpace=wrap;html=1;fontStyle=1;align=left;verticalAlign=top;horizontal=1;" vertex="1" parent="1">
                    <mxGeometry x="640" y="280" width="480" height="360" as="geometry"/>
                </mxCell>
                <mxCell id="46" style="edgeStyle=none;html=1;entryX=1;entryY=0.5;entryDx=0;entryDy=0;fontSize=10;fontColor=none;startArrow=none;startFill=0;endArrow=none;endFill=0;exitX=1;exitY=0.5;exitDx=0;exitDy=0;" edge="1" parent="1" source="11" target="17">
                    <mxGeometry relative="1" as="geometry">
                        <Array as="points">
                            <mxPoint x="1000" y="570"/>
                            <mxPoint x="1000" y="330"/>
                        </Array>
                    </mxGeometry>
                </mxCell>
                <mxCell id="47" value="&lt;font color=&quot;#fffafc&quot;&gt;onImageDetected&lt;/font&gt;" style="edgeLabel;html=1;align=center;verticalAlign=middle;resizable=0;points=[];fontSize=10;fontColor=none;" vertex="1" connectable="0" parent="46">
                    <mxGeometry x="0.2239" y="-1" relative="1" as="geometry">
                        <mxPoint y="-23" as="offset"/>
                    </mxGeometry>
                </mxCell>
                <mxCell id="11" value="presentation&lt;br&gt;Darstellung der Widgets" style="whiteSpace=wrap;html=1;" vertex="1" parent="1">
                    <mxGeometry x="805" y="530" width="150" height="80" as="geometry"/>
                </mxCell>
                <mxCell id="9" value="data-service&lt;br&gt;DB Repository" style="whiteSpace=wrap;html=1;" vertex="1" parent="1">
                    <mxGeometry x="90" y="530" width="150" height="80" as="geometry"/>
                </mxCell>
                <mxCell id="8" value="recognition-service&lt;br&gt;Gesichtserkennung" style="whiteSpace=wrap;html=1;" vertex="1" parent="1">
                    <mxGeometry x="370" y="530" width="150" height="80" as="geometry"/>
                </mxCell>
                <mxCell id="23" style="edgeStyle=none;html=1;fontColor=none;" edge="1" parent="1" source="10">
                    <mxGeometry relative="1" as="geometry">
                        <mxPoint x="305" y="240" as="targetPoint"/>
                    </mxGeometry>
                </mxCell>
                <mxCell id="54" style="edgeStyle=none;html=1;entryX=0.5;entryY=0;entryDx=0;entryDy=0;fontSize=10;fontColor=#FFFAFC;startArrow=none;startFill=0;endArrow=none;endFill=0;exitX=0;exitY=0.5;exitDx=0;exitDy=0;" edge="1" parent="1" source="10" target="53">
                    <mxGeometry relative="1" as="geometry">
                        <Array as="points">
                            <mxPoint x="165" y="330"/>
                        </Array>
                    </mxGeometry>
                </mxCell>
                <mxCell id="55" value="onImageDetected$" style="edgeLabel;html=1;align=center;verticalAlign=middle;resizable=0;points=[];fontSize=10;fontColor=#FFFAFC;" vertex="1" connectable="0" parent="54">
                    <mxGeometry x="0.1513" y="4" relative="1" as="geometry">
                        <mxPoint as="offset"/>
                    </mxGeometry>
                </mxCell>
                <mxCell id="10" value="message-service&lt;br&gt;Message Broker" style="whiteSpace=wrap;html=1;" vertex="1" parent="1">
                    <mxGeometry x="229.5" y="290" width="150" height="80" as="geometry"/>
                </mxCell>
                <mxCell id="48" style="edgeStyle=none;html=1;entryX=0.25;entryY=0;entryDx=0;entryDy=0;fontSize=10;fontColor=#FFFAFC;startArrow=none;startFill=0;endArrow=none;endFill=0;exitX=0.25;exitY=1;exitDx=0;exitDy=0;" edge="1" parent="1" source="17" target="11">
                    <mxGeometry relative="1" as="geometry"/>
                </mxCell>
                <mxCell id="49" value="userDetected$&lt;br&gt;- userName&amp;nbsp; &amp;nbsp;&lt;br&gt;- userWidgets" style="edgeLabel;html=1;align=center;verticalAlign=middle;resizable=0;points=[];fontSize=10;fontColor=#FFFAFC;" vertex="1" connectable="0" parent="48">
                    <mxGeometry x="-0.35" y="1" relative="1" as="geometry">
                        <mxPoint x="-1" y="-22" as="offset"/>
                    </mxGeometry>
                </mxCell>
                <mxCell id="50" style="edgeStyle=none;html=1;entryX=0;entryY=0.5;entryDx=0;entryDy=0;fontSize=10;fontColor=#FFFAFC;startArrow=none;startFill=0;endArrow=none;endFill=0;exitX=0;exitY=0.5;exitDx=0;exitDy=0;" edge="1" parent="1" source="17" target="11">
                    <mxGeometry relative="1" as="geometry">
                        <Array as="points">
                            <mxPoint x="760" y="330"/>
                            <mxPoint x="760" y="570"/>
                        </Array>
                    </mxGeometry>
                </mxCell>
                <mxCell id="52" value="userUpdated$&lt;br&gt;- userName&amp;nbsp; &amp;nbsp;&lt;br&gt;- userWidgets" style="edgeLabel;html=1;align=center;verticalAlign=middle;resizable=0;points=[];fontSize=10;fontColor=#FFFAFC;" vertex="1" connectable="0" parent="50">
                    <mxGeometry x="-0.1982" y="-3" relative="1" as="geometry">
                        <mxPoint x="3" y="-17" as="offset"/>
                    </mxGeometry>
                </mxCell>
                <mxCell id="64" style="edgeStyle=none;html=1;entryX=0.75;entryY=0;entryDx=0;entryDy=0;fontSize=10;fontColor=#FFFAFC;startArrow=none;startFill=0;endArrow=none;endFill=0;exitX=0.75;exitY=1;exitDx=0;exitDy=0;" edge="1" parent="1" source="17" target="11">
                    <mxGeometry relative="1" as="geometry"/>
                </mxCell>
                <mxCell id="65" value="currentMode$" style="edgeLabel;html=1;align=center;verticalAlign=middle;resizable=0;points=[];fontSize=10;fontColor=#FFFAFC;" vertex="1" connectable="0" parent="64">
                    <mxGeometry x="-0.7471" y="4" relative="1" as="geometry">
                        <mxPoint as="offset"/>
                    </mxGeometry>
                </mxCell>
                <mxCell id="17" value="message-service&lt;br&gt;Message Broker" style="whiteSpace=wrap;html=1;" vertex="1" parent="1">
                    <mxGeometry x="805" y="290" width="150" height="80" as="geometry"/>
                </mxCell>
                <mxCell id="18" value="IPC Bridge" style="whiteSpace=wrap;html=1;" vertex="1" parent="1">
                    <mxGeometry x="50" y="160" width="1070" height="80" as="geometry"/>
                </mxCell>
                <mxCell id="56" style="edgeStyle=none;html=1;entryX=1;entryY=0.5;entryDx=0;entryDy=0;fontSize=10;fontColor=#FFFAFC;startArrow=none;startFill=0;endArrow=none;endFill=0;exitX=0.5;exitY=0;exitDx=0;exitDy=0;" edge="1" parent="1" source="27" target="10">
                    <mxGeometry relative="1" as="geometry">
                        <Array as="points">
                            <mxPoint x="445" y="330"/>
                        </Array>
                    </mxGeometry>
                </mxCell>
                <mxCell id="57" value="userUpdated" style="edgeLabel;html=1;align=center;verticalAlign=middle;resizable=0;points=[];fontSize=10;fontColor=#FFFAFC;" vertex="1" connectable="0" parent="56">
                    <mxGeometry x="-0.1786" relative="1" as="geometry">
                        <mxPoint as="offset"/>
                    </mxGeometry>
                </mxCell>
                <mxCell id="62" style="edgeStyle=none;html=1;entryX=0;entryY=0.5;entryDx=0;entryDy=0;fontSize=10;fontColor=#FFFAFC;startArrow=none;startFill=0;endArrow=none;endFill=0;exitX=0;exitY=0.5;exitDx=0;exitDy=0;" edge="1" parent="1" source="27" target="8">
                    <mxGeometry relative="1" as="geometry">
                        <Array as="points">
                            <mxPoint x="310" y="440"/>
                            <mxPoint x="310" y="570"/>
                        </Array>
                    </mxGeometry>
                </mxCell>
                <mxCell id="27" value="admin-panel&lt;br&gt;Backend und Frontend fÃ¼r Registrierung und Profile" style="whiteSpace=wrap;html=1;" vertex="1" parent="1">
                    <mxGeometry x="370" y="400" width="150" height="80" as="geometry"/>
                </mxCell>
                <mxCell id="61" style="edgeStyle=none;html=1;fontSize=10;fontColor=#FFFAFC;startArrow=none;startFill=0;endArrow=none;endFill=0;exitX=1;exitY=0.5;exitDx=0;exitDy=0;entryX=1;entryY=0.5;entryDx=0;entryDy=0;" edge="1" parent="1" source="53" target="9">
                    <mxGeometry relative="1" as="geometry">
                        <Array as="points">
                            <mxPoint x="310" y="440"/>
                            <mxPoint x="310" y="570"/>
                        </Array>
                    </mxGeometry>
                </mxCell>
                <mxCell id="53" value="mirror-service&lt;br&gt;" style="whiteSpace=wrap;html=1;" vertex="1" parent="1">
                    <mxGeometry x="90" y="400" width="150" height="80" as="geometry"/>
                </mxCell>
            </root>
        </mxGraphModel>
    </diagram>
</mxfile>